<svg xmlns="http://www.w3.org/2000/svg" viewBox="0 0 105 105"><g transform="translate(-54.1 -49.9)"><circle cx="106.6" cy="102.4" r="52" fill="#ff0" stroke="#000"/><path fill="#ff0" d="M156.6 102.4a50 50 0 0 1-25 43.3l-25-43.3Z"/><path d="M131.6 145.7a50 50 0 0 1-50 0l25-43.3z"/><path fill="#ff0" d="M81.6 145.7a50 50 0 0 1-25-43.3h50Z"/><path d="M131.6 59.1a50 50 0 0 1 25 43.3h-50Z"/><path fill="#ff0" d="M81.6 59.1a50 50 0 0 1 50 0l-25 43.3Z"/><path d="M56.6 102.4a50 50 0 0 1 25-43.3l25 43.3z"/><circle cx="106.6" cy="102.4" r="10" stroke="#ff0" stroke-width="5"/></g></svg>