<?xml version="1.0" encoding="UTF-8"?>
<svg version="1.1" viewBox="0 0 261.95 261.95" xmlns="http://www.w3.org/2000/svg">
<g transform="translate(-169.02 -281.39)">
<g transform="matrix(1 0 0 -1 0 824.72)">
<path transform="matrix(.65 0 0 .65 241.5 482.33)" d="m290-107.64c0 110.46-89.54 200-200 200s-200-89.543-200-200 89.543-200 200-200 200 89.543 200 200z" fill="#ff0" stroke="#000" stroke-width="3"/>
<path transform="matrix(1.4286 0 0 1.4286 -128.57 -176.73)" d="m370 412.36c0 25.009-13.342 48.117-35 60.622l-35-60.622z"/>
<path transform="matrix(-1.4286 0 0 1.4286 728.57 -176.73)" d="m370 412.36c0 25.009-13.342 48.117-35 60.622l-35-60.622z"/>
<path transform="matrix(-.71429 -1.2372 1.2372 -.71429 4.1198 1078.1)" d="m370 412.36c0 25.009-13.342 48.117-35 60.622l-35-60.622z"/>
<path transform="matrix(1 0 0 -.75 220 691.63)" d="m110 372.36c0 22.091-13.431 40-30 40s-30-17.909-30-40 13.431-40 30-40 30 17.909 30 40z" fill="#ff0"/>
<path transform="matrix(1 0 0 -1 20 854.72)" d="m300 442.36c0 11.046-8.9543 20-20 20s-20-8.9543-20-20 8.9543-20 20-20 20 8.9543 20 20z"/>
</g>
</g>
</svg>

